{
	"asset":{
		"generator":"Khronos glTF Blender I/O v3.6.27",
		"version":"2.0"
	},
	"scene":0,
	"scenes":[
		{
			"name":"Scene",
			"nodes":[
				5
			]
		}
	],
	"nodes":[
		{
			"mesh":0,
			"name":"node_id42",
			"scale":[
				0.01667822152376175,
				0.013000000268220901,
				0.01667822152376175
			],
			"translation":[
				0.1246958076953888,
				-0.052172448486089706,
				0.23202048242092133
			]
		},
		{
			"mesh":1,
			"name":"node_id50",
			"rotation":[
				0,
				-1,
				0,
				5.526882507211894e-09
			],
			"scale":[
				0.010531734675168991,
				0.010531735606491566,
				0.010531734675168991
			],
			"translation":[
				0.08958244323730469,
				-0.052224673330783844,
				0.3786405920982361
			]
		},
		{
			"mesh":2,
			"name":"node_id56",
			"scale":[
				0.001860658172518015,
				0.0018606582889333367,
				0.001860658172518015
			],
			"translation":[
				0.2684944272041321,
				0.1331636607646942,
				0.22934317588806152
			]
		},
		{
			"mesh":3,
			"name":"node_id82",
			"rotation":[
				-0.7071066498756409,
				0,
				0,
				0.70710688829422
			],
			"scale":[
				0.004257610999047756,
				0.004257610533386469,
				0.004257612396031618
			],
			"translation":[
				0.07028350234031677,
				0.14139872789382935,
				0.29899322986602783
			]
		},
		{
			"mesh":4,
			"name":"node_id90",
			"rotation":[
				1,
				0,
				0,
				0
			],
			"scale":[
				-0.0032025035470724106,
				-0.003202503314241767,
				-0.0032025035470724106
			],
			"translation":[
				0.15104950964450836,
				0.1439632922410965,
				0.2565212547779083
			]
		},
		{
			"children":[
				0,
				1,
				2,
				3,
				4
			],
			"name":"root",
			"rotation":[
				0,
				0.9999701380729675,
				0,
				0.007739707827568054
			],
			"translation":[
				0,
				0,
				-0.1428287774324417
			]
		}
	],
	"animations":[
		{
			"channels":[
				{
					"sampler":0,
					"target":{
						"node":5,
						"path":"scale"
					}
				}
			],
			"name":"rootAction",
			"samplers":[
				{
					"input":21,
					"interpolation":"LINEAR",
					"output":22
				}
			]
		}
	],
	"materials":[
		{
			"alphaCutoff":0.5,
			"alphaMode":"MASK",
			"doubleSided":true,
			"name":"134",
			"pbrMetallicRoughness":{}
		},
		{
			"alphaCutoff":0.5,
			"alphaMode":"MASK",
			"doubleSided":true,
			"name":"77",
			"pbrMetallicRoughness":{}
		},
		{
			"alphaCutoff":0.5,
			"alphaMode":"MASK",
			"doubleSided":true,
			"name":"85",
			"pbrMetallicRoughness":{}
		},
		{
			"alphaCutoff":0.5,
			"alphaMode":"MASK",
			"doubleSided":true,
			"name":"113",
			"pbrMetallicRoughness":{}
		},
		{
			"alphaCutoff":0.5,
			"alphaMode":"MASK",
			"doubleSided":true,
			"name":"123",
			"pbrMetallicRoughness":{}
		}
	],
	"meshes":[
		{
			"name":"mesh_id43",
			"primitives":[
				{
					"attributes":{
						"COLOR_0":0,
						"POSITION":1,
						"NORMAL":2,
						"TEXCOORD_0":3
					},
					"indices":4,
					"material":0
				}
			]
		},
		{
			"name":"mesh_id51",
			"primitives":[
				{
					"attributes":{
						"POSITION":5,
						"NORMAL":6,
						"TEXCOORD_0":7
					},
					"indices":8,
					"material":1
				}
			]
		},
		{
			"name":"mesh_id57",
			"primitives":[
				{
					"attributes":{
						"POSITION":9,
						"NORMAL":10,
						"TEXCOORD_0":11
					},
					"indices":12,
					"material":2
				}
			]
		},
		{
			"name":"mesh_id83",
			"primitives":[
				{
					"attributes":{
						"POSITION":13,
						"NORMAL":14,
						"TEXCOORD_0":15
					},
					"indices":16,
					"material":3
				}
			]
		},
		{
			"name":"mesh_id91",
			"primitives":[
				{
					"attributes":{
						"POSITION":17,
						"NORMAL":18,
						"TEXCOORD_0":19
					},
					"indices":20,
					"material":4
				}
			]
		}
	],
	"accessors":[
		{
			"bufferView":0,
			"componentType":5123,
			"count":1432,
			"normalized":true,
			"type":"VEC4"
		},
		{
			"bufferView":1,
			"componentType":5126,
			"count":1432,
			"max":[
				15.751396179199219,
				14.724937438964844,
				6.930996417999268
			],
			"min":[
				-14.947319030761719,
				-3.373199069756083e-05,
				-6.930996417999268
			],
			"type":"VEC3"
		},
		{
			"bufferView":2,
			"componentType":5126,
			"count":1432,
			"type":"VEC3"
		},
		{
			"bufferView":3,
			"componentType":5126,
			"count":1432,
			"type":"VEC2"
		},
		{
			"bufferView":4,
			"componentType":5123,
			"count":5676,
			"type":"SCALAR"
		},
		{
			"bufferView":5,
			"componentType":5126,
			"count":10336,
			"max":[
				8.159944534301758,
				27.031208038330078,
				7.569222927093506
			],
			"min":[
				-8.41273021697998,
				0.004903603345155716,
				-9.507725715637207
			],
			"type":"VEC3"
		},
		{
			"bufferView":6,
			"componentType":5126,
			"count":10336,
			"type":"VEC3"
		},
		{
			"bufferView":7,
			"componentType":5126,
			"count":10336,
			"type":"VEC2"
		},
		{
			"bufferView":8,
			"componentType":5123,
			"count":47622,
			"type":"SCALAR"
		},
		{
			"bufferView":9,
			"componentType":5126,
			"count":11349,
			"max":[
				29.32704734802246,
				67.07203674316406,
				32.6469841003418
			],
			"min":[
				-25.61589813232422,
				0.02353745512664318,
				-21.37245750427246
			],
			"type":"VEC3"
		},
		{
			"bufferView":10,
			"componentType":5126,
			"count":11349,
			"type":"VEC3"
		},
		{
			"bufferView":11,
			"componentType":5126,
			"count":11349,
			"type":"VEC2"
		},
		{
			"bufferView":12,
			"componentType":5123,
			"count":55584,
			"type":"SCALAR"
		},
		{
			"bufferView":13,
			"componentType":5126,
			"count":19525,
			"max":[
				15.900314331054688,
				10.850400924682617,
				21.34433937072754
			],
			"min":[
				-15.888101577758789,
				-10.633380889892578,
				-0.6295815110206604
			],
			"type":"VEC3"
		},
		{
			"bufferView":14,
			"componentType":5126,
			"count":19525,
			"type":"VEC3"
		},
		{
			"bufferView":15,
			"componentType":5126,
			"count":19525,
			"type":"VEC2"
		},
		{
			"bufferView":16,
			"componentType":5123,
			"count":58059,
			"type":"SCALAR"
		},
		{
			"bufferView":17,
			"componentType":5126,
			"count":2892,
			"max":[
				8.149477005004883,
				2.1009364128112793,
				13.490190505981445
			],
			"min":[
				-8.149477005004883,
				-2.9802322387695312e-08,
				-13.490191459655762
			],
			"type":"VEC3"
		},
		{
			"bufferView":18,
			"componentType":5126,
			"count":2892,
			"type":"VEC3"
		},
		{
			"bufferView":19,
			"componentType":5126,
			"count":2892,
			"type":"VEC2"
		},
		{
			"bufferView":20,
			"componentType":5123,
			"count":11268,
			"type":"SCALAR"
		},
		{
			"bufferView":21,
			"componentType":5126,
			"count":1,
			"max":[
				0.03333333333333333
			],
			"min":[
				0.03333333333333333
			],
			"type":"SCALAR"
		},
		{
			"bufferView":22,
			"componentType":5126,
			"count":1,
			"type":"VEC3"
		}
	],
	"bufferViews":[
		{
			"buffer":0,
			"byteLength":11456,
			"byteOffset":0,
			"target":34962
		},
		{
			"buffer":0,
			"byteLength":17184,
			"byteOffset":11456,
			"target":34962
		},
		{
			"buffer":0,
			"byteLength":17184,
			"byteOffset":28640,
			"target":34962
		},
		{
			"buffer":0,
			"byteLength":11456,
			"byteOffset":45824,
			"target":34962
		},
		{
			"buffer":0,
			"byteLength":11352,
			"byteOffset":57280,
			"target":34963
		},
		{
			"buffer":0,
			"byteLength":124032,
			"byteOffset":68632,
			"target":34962
		},
		{
			"buffer":0,
			"byteLength":124032,
			"byteOffset":192664,
			"target":34962
		},
		{
			"buffer":0,
			"byteLength":82688,
			"byteOffset":316696,
			"target":34962
		},
		{
			"buffer":0,
			"byteLength":95244,
			"byteOffset":399384,
			"target":34963
		},
		{
			"buffer":0,
			"byteLength":136188,
			"byteOffset":494628,
			"target":34962
		},
		{
			"buffer":0,
			"byteLength":136188,
			"byteOffset":630816,
			"target":34962
		},
		{
			"buffer":0,
			"byteLength":90792,
			"byteOffset":767004,
			"target":34962
		},
		{
			"buffer":0,
			"byteLength":111168,
			"byteOffset":857796,
			"target":34963
		},
		{
			"buffer":0,
			"byteLength":234300,
			"byteOffset":968964,
			"target":34962
		},
		{
			"buffer":0,
			"byteLength":234300,
			"byteOffset":1203264,
			"target":34962
		},
		{
			"buffer":0,
			"byteLength":156200,
			"byteOffset":1437564,
			"target":34962
		},
		{
			"buffer":0,
			"byteLength":116118,
			"byteOffset":1593764,
			"target":34963
		},
		{
			"buffer":0,
			"byteLength":34704,
			"byteOffset":1709884,
			"target":34962
		},
		{
			"buffer":0,
			"byteLength":34704,
			"byteOffset":1744588,
			"target":34962
		},
		{
			"buffer":0,
			"byteLength":23136,
			"byteOffset":1779292,
			"target":34962
		},
		{
			"buffer":0,
			"byteLength":22536,
			"byteOffset":1802428,
			"target":34963
		},
		{
			"buffer":0,
			"byteLength":4,
			"byteOffset":1824964
		},
		{
			"buffer":0,
			"byteLength":12,
			"byteOffset":1824968
		}
	],
	"buffers":[
		{
			"byteLength":1824980,
			"uri":"data:application/octet-stream;base64,"
		}
	]
}
