<svg id="svg" version="1.1" xmlns="http://www.w3.org/2000/svg" xmlns:xlink="http://www.w3.org/1999/xlink" width="400" height="450" viewBox="0, 0, 400,450"><g id="svgg"><path id="path0" d="M196.800 225.720 L 197.000 286.200 197.101 226.021 C 197.157 192.923,197.067 165.707,196.901 165.541 C 196.736 165.376,196.690 192.456,196.800 225.720 M261.400 169.494 C 293.813 169.769,318.706 169.772,318.538 169.500 C 318.436 169.335,302.748 169.242,283.676 169.294 C 264.604 169.346,254.580 169.436,261.400 169.494 M84.637 172.200 C 84.997 172.750,85.357 173.200,85.437 173.200 C 85.517 173.200,85.378 172.750,85.127 172.200 C 84.877 171.650,84.516 171.200,84.327 171.200 C 84.137 171.200,84.276 171.650,84.637 172.200 M229.600 180.525 C 229.600 180.594,230.185 181.179,230.900 181.825 L 232.200 183.000 231.025 181.700 C 229.930 180.488,229.600 180.216,229.600 180.525 M165.711 208.500 C 164.929 209.511,164.663 210.132,165.136 209.840 C 165.610 209.547,166.557 208.000,166.263 208.000 C 166.172 208.000,165.924 208.225,165.711 208.500 M268.279 215.174 C 267.906 215.806,267.601 216.476,267.601 216.662 C 267.602 216.848,267.972 216.395,268.423 215.655 C 268.874 214.915,269.179 214.246,269.101 214.167 C 269.022 214.089,268.652 214.542,268.279 215.174 M124.681 228.987 C 125.077 229.531,125.566 229.981,125.770 229.987 C 125.973 229.994,125.717 229.550,125.200 229.000 C 124.001 227.723,123.757 227.718,124.681 228.987 M105.643 230.200 C 106.354 231.190,107.017 232.000,107.117 232.000 C 107.216 232.000,107.003 231.595,106.643 231.100 C 106.282 230.605,105.782 229.795,105.530 229.300 C 105.278 228.805,104.909 228.400,104.711 228.400 C 104.513 228.400,104.932 229.210,105.643 230.200 M257.837 231.000 C 257.476 231.550,257.337 232.000,257.527 232.000 C 257.716 232.000,258.077 231.550,258.327 231.000 C 258.578 230.450,258.717 230.000,258.637 230.000 C 258.557 230.000,258.197 230.450,257.837 231.000 M253.646 237.326 C 252.456 239.251,252.590 239.622,253.820 237.809 C 254.381 236.982,254.761 236.228,254.665 236.132 C 254.570 236.036,254.111 236.574,253.646 237.326 M238.469 260.439 C 237.728 261.624,238.057 261.713,238.919 260.561 C 239.314 260.032,239.492 259.600,239.315 259.600 C 239.138 259.600,238.757 259.978,238.469 260.439 M251.206 269.300 C 251.200 269.962,253.070 269.995,285.700 269.902 L 320.200 269.805 286.022 269.700 C 259.291 269.618,251.776 269.487,251.528 269.098 C 251.304 268.744,251.210 268.803,251.206 269.300 " stroke="none" fill="#23cce4" fill-rule="evenodd"></path><path id="path1" d="M193.134 21.682 C 190.860 22.542,188.370 23.435,187.600 23.666 C 186.830 23.897,185.840 24.286,185.400 24.529 C 184.960 24.772,184.510 24.988,184.400 25.009 C 183.338 25.205,179.600 26.605,179.600 26.806 C 179.600 26.950,179.364 27.067,179.076 27.067 C 178.351 27.067,169.831 30.879,169.667 31.277 C 169.593 31.455,169.271 31.600,168.951 31.600 C 168.090 31.600,166.162 32.673,161.005 36.021 C 159.462 37.022,158.014 37.954,157.787 38.091 C 157.506 38.260,157.489 37.271,157.736 34.973 C 158.399 28.787,156.365 27.969,151.665 32.532 C 141.854 42.055,140.910 42.622,136.018 41.930 C 129.660 41.031,124.044 43.378,117.900 49.503 C 116.855 50.544,116.000 51.622,116.000 51.898 C 116.000 52.174,115.820 52.400,115.600 52.400 C 115.380 52.400,115.200 52.670,115.200 53.000 C 115.200 53.330,115.034 53.600,114.831 53.600 C 114.629 53.600,113.954 54.854,113.331 56.387 C 111.940 59.815,111.487 59.943,103.421 59.187 C 95.055 58.404,92.505 59.023,88.364 62.844 C 87.794 63.370,86.185 64.790,84.788 66.000 C 75.581 73.974,54.638 94.850,53.289 97.400 C 52.707 98.500,51.582 101.291,50.789 103.602 C 49.996 105.913,49.007 108.343,48.592 109.002 C 46.947 111.616,39.888 119.042,34.154 124.192 C 25.955 131.557,15.600 143.022,15.600 144.735 C 15.600 144.937,15.330 145.326,15.000 145.600 C 14.670 145.874,14.400 146.436,14.400 146.849 C 14.400 147.262,14.242 147.600,14.049 147.600 C 13.725 147.600,12.129 150.890,12.012 151.800 C 11.984 152.020,11.733 152.560,11.454 153.000 C 10.606 154.339,8.551 160.533,7.406 165.200 C 5.773 171.857,5.362 173.858,5.010 176.848 C 4.942 177.424,4.787 178.234,4.664 178.648 C 4.542 179.062,4.061 182.010,3.595 185.200 C 2.519 192.564,2.389 193.493,2.190 195.200 C 2.100 195.970,1.934 196.978,1.821 197.441 C 1.707 197.903,1.517 198.983,1.398 199.841 C 1.278 200.698,0.875 202.981,0.502 204.913 C -0.087 207.964,-0.102 208.542,0.389 209.313 C 1.037 210.329,5.802 219.914,7.293 223.200 C 9.575 228.231,10.000 229.200,10.000 229.370 C 10.000 229.468,10.208 230.055,10.461 230.674 C 10.715 231.293,10.972 231.980,11.033 232.200 C 11.093 232.420,11.680 234.130,12.336 236.000 C 14.583 242.400,17.229 253.633,17.275 256.969 C 17.305 259.196,16.084 260.163,13.693 259.805 L 11.956 259.544 12.144 266.272 C 12.327 272.802,12.827 275.694,14.348 279.000 C 15.450 281.395,16.869 284.622,18.305 288.000 C 21.699 295.983,25.908 305.464,26.736 306.994 C 27.211 307.871,27.600 308.737,27.600 308.919 C 27.600 309.101,28.026 310.183,28.547 311.325 C 29.569 313.562,32.795 321.072,33.993 324.000 C 34.398 324.990,35.375 327.361,36.165 329.269 C 36.954 331.178,37.600 332.850,37.600 332.987 C 37.600 333.223,40.077 340.105,40.772 341.800 C 40.953 342.240,41.404 343.640,41.774 344.912 C 42.153 346.211,42.657 347.182,42.924 347.129 C 46.036 346.508,48.858 350.150,50.214 356.536 C 52.705 368.263,57.210 376.935,63.338 381.800 C 64.170 382.460,65.064 383.190,65.325 383.422 C 68.263 386.032,74.219 387.533,82.020 387.630 C 90.499 387.736,95.280 388.922,98.080 391.617 C 100.117 393.577,103.770 396.017,105.337 396.465 C 106.252 396.726,107.218 397.105,107.484 397.306 C 108.577 398.131,114.077 399.235,118.200 399.456 C 121.851 399.652,122.889 399.857,124.300 400.663 C 125.235 401.197,126.000 401.508,126.000 401.355 C 126.000 401.201,126.315 401.342,126.700 401.667 C 127.085 401.991,128.750 402.945,130.400 403.785 C 140.883 409.124,146.065 411.881,148.218 413.266 C 149.108 413.838,150.773 414.797,151.918 415.395 C 153.063 415.994,154.001 416.600,154.003 416.742 C 154.017 418.214,157.945 418.714,159.339 417.421 L 160.395 416.442 160.643 417.428 C 160.779 417.971,160.765 419.420,160.611 420.648 L 160.332 422.882 161.866 422.646 C 162.710 422.516,165.020 422.218,167.000 421.984 C 168.980 421.749,171.140 421.483,171.800 421.392 C 172.460 421.301,174.350 421.112,176.000 420.971 C 177.650 420.831,179.540 420.643,180.200 420.554 C 182.904 420.187,200.842 420.082,204.000 420.413 C 205.870 420.610,208.390 420.869,209.600 420.988 C 210.810 421.108,213.780 421.665,216.200 422.226 C 218.620 422.788,220.873 423.290,221.207 423.342 C 221.541 423.395,221.991 423.543,222.207 423.671 C 222.423 423.799,223.500 423.663,224.600 423.370 C 229.356 422.099,235.030 422.815,240.600 425.387 C 242.282 426.164,243.825 426.800,244.029 426.800 C 244.233 426.800,244.400 426.980,244.400 427.200 C 244.400 427.420,244.572 427.600,244.782 427.600 C 244.992 427.600,245.789 428.024,246.552 428.541 C 250.236 431.042,254.922 430.016,254.030 426.905 C 253.507 425.082,254.840 424.301,261.400 422.582 C 269.693 420.409,271.387 420.438,273.440 422.785 C 277.112 426.986,278.239 428.009,279.448 428.240 L 280.696 428.479 280.766 424.958 C 280.886 418.821,281.893 417.890,288.466 417.837 L 292.973 417.800 292.883 414.400 C 292.827 412.240,292.978 410.685,293.297 410.135 C 294.374 408.284,308.920 393.200,309.629 393.200 C 309.811 393.200,310.104 392.975,310.280 392.700 C 310.456 392.425,311.184 391.876,311.897 391.479 C 313.377 390.657,312.764 390.241,317.304 395.151 C 319.741 397.786,320.266 397.780,319.878 395.120 C 319.431 392.061,318.194 389.692,315.716 387.149 C 312.772 384.128,312.904 383.694,317.201 382.285 C 322.997 380.383,325.266 380.424,327.961 382.479 C 329.271 383.477,329.393 383.173,328.374 381.446 C 326.546 378.348,328.891 376.401,334.454 376.398 C 340.669 376.394,343.018 374.786,343.802 370.000 C 343.964 369.010,344.175 367.750,344.270 367.200 C 344.448 366.173,346.304 363.200,346.768 363.200 C 346.911 363.200,347.330 362.705,347.700 362.100 C 348.069 361.495,349.053 360.248,349.886 359.329 C 350.719 358.410,351.670 357.324,352.000 356.917 C 352.330 356.510,353.320 355.293,354.200 354.214 C 357.185 350.552,364.954 339.204,364.483 339.194 C 364.328 339.191,364.402 339.056,364.648 338.894 C 365.722 338.190,377.600 316.051,377.600 314.753 C 377.600 314.590,378.115 313.318,378.745 311.928 C 379.375 310.538,380.555 307.780,381.367 305.800 C 382.178 303.820,383.103 301.609,383.421 300.886 C 384.679 298.031,384.212 297.782,381.525 299.873 C 378.954 301.875,372.294 308.427,372.561 308.694 C 372.644 308.778,372.209 309.398,371.593 310.072 C 370.977 310.747,370.142 311.951,369.737 312.749 C 367.788 316.588,365.071 318.106,362.886 316.575 C 362.177 316.079,361.957 316.058,361.816 316.475 C 361.719 316.764,361.252 318.305,360.780 319.900 C 359.717 323.493,359.501 323.552,359.849 320.151 L 360.120 317.503 359.060 318.197 C 358.477 318.579,358.000 319.081,358.000 319.313 C 358.000 319.544,357.888 319.621,357.750 319.484 C 357.613 319.346,356.381 320.171,355.012 321.317 C 353.643 322.463,351.225 324.390,349.637 325.600 C 346.004 328.370,342.072 331.446,340.899 332.436 C 340.403 332.855,339.898 333.185,339.777 333.171 C 339.528 333.142,337.465 334.672,336.460 335.630 C 336.097 335.977,334.180 337.414,332.200 338.822 C 330.220 340.231,327.430 342.295,326.000 343.408 C 324.570 344.521,322.230 346.220,320.800 347.183 C 319.370 348.147,318.020 349.152,317.800 349.417 C 317.471 349.814,312.928 353.025,310.468 354.600 C 310.125 354.820,309.474 355.330,309.022 355.734 C 308.570 356.138,307.660 356.748,307.000 357.090 C 306.340 357.432,305.710 357.840,305.600 357.996 C 305.400 358.280,302.600 360.184,301.089 361.064 C 300.651 361.319,300.181 361.679,300.046 361.864 C 299.911 362.049,299.170 362.544,298.400 362.965 C 297.630 363.386,296.370 364.208,295.600 364.793 C 294.830 365.377,293.210 366.451,292.000 367.180 C 290.790 367.908,289.710 368.624,289.600 368.769 C 289.132 369.388,283.361 372.825,281.770 373.433 C 278.888 374.533,276.132 373.435,274.909 370.699 C 274.268 369.267,274.127 369.297,271.998 371.302 C 267.658 375.390,265.153 375.267,265.826 371.000 L 266.015 369.800 262.708 369.721 C 258.786 369.628,257.848 370.081,257.153 372.398 C 256.566 374.360,256.260 374.390,255.104 372.605 C 253.580 370.253,253.146 370.693,252.560 375.179 C 252.330 376.941,252.213 377.188,251.948 376.470 C 251.268 374.632,248.536 375.680,247.778 378.070 C 247.438 379.141,247.113 378.967,246.000 377.118 C 243.911 373.650,239.234 368.673,240.782 371.567 C 242.557 374.884,242.503 379.015,240.710 377.081 L 239.729 376.022 239.635 377.711 C 239.583 378.640,239.479 379.850,239.404 380.400 C 239.328 380.950,239.252 381.535,239.233 381.700 C 239.215 381.865,238.943 382.000,238.630 382.000 C 238.316 382.000,236.876 383.138,235.430 384.528 C 233.983 385.918,232.800 386.992,232.800 386.914 C 232.800 386.836,232.485 386.937,232.100 387.140 C 231.715 387.342,229.870 387.622,228.000 387.761 C 223.907 388.066,222.008 388.302,217.800 389.029 C 213.179 389.827,212.525 389.961,209.187 390.785 C 206.355 391.485,203.307 391.408,202.008 390.605 C 201.821 390.490,200.438 390.147,198.934 389.843 C 197.430 389.539,194.040 388.837,191.400 388.284 C 188.760 387.731,185.970 387.183,185.200 387.066 C 184.430 386.950,183.440 386.773,183.000 386.674 C 182.315 386.520,180.628 386.267,177.000 385.774 C 176.560 385.714,174.940 385.479,173.400 385.250 C 168.504 384.523,161.904 383.845,155.600 383.419 C 146.282 382.791,135.556 379.225,125.155 373.299 C 121.814 371.395,121.903 371.548,123.631 370.693 C 125.593 369.722,126.800 367.802,126.800 365.653 C 126.800 363.694,126.651 363.640,125.393 365.136 C 124.464 366.239,123.331 366.651,117.707 367.927 L 116.014 368.311 113.307 365.711 C 102.528 355.360,97.617 350.737,91.200 344.903 C 90.210 344.003,88.230 342.159,86.800 340.805 C 85.370 339.451,82.533 336.781,80.495 334.872 C 74.656 329.400,61.372 316.124,57.200 311.591 C 55.110 309.320,53.125 307.174,52.790 306.821 C 48.637 302.456,43.157 293.398,41.767 288.600 C 41.282 286.928,36.420 275.224,34.904 272.081 L 33.883 269.963 32.767 271.031 C 31.401 272.340,30.039 272.141,28.840 270.457 C 25.875 266.292,27.683 261.354,31.376 263.533 C 32.159 263.995,32.800 264.321,32.800 264.258 C 32.800 264.194,31.804 257.225,30.586 248.771 C 28.044 231.118,27.992 232.532,31.451 225.341 C 33.642 220.787,33.975 219.402,34.575 212.332 C 34.699 210.864,34.881 209.424,34.980 209.132 C 35.078 208.839,35.247 207.430,35.356 206.000 C 35.465 204.570,35.996 199.530,36.537 194.800 C 37.078 190.070,37.638 185.030,37.783 183.600 C 37.927 182.170,38.114 180.460,38.199 179.800 C 38.283 179.140,38.553 176.718,38.798 174.418 C 40.300 160.323,44.504 147.432,52.239 133.200 C 52.658 132.430,53.090 131.710,53.200 131.600 C 53.310 131.490,54.113 130.320,54.983 129.000 C 55.854 127.680,57.084 125.925,57.717 125.100 C 58.350 124.275,58.762 123.600,58.634 123.600 C 58.505 123.600,58.715 123.276,59.100 122.880 C 59.485 122.484,60.250 121.551,60.800 120.807 C 61.350 120.062,62.490 118.631,63.333 117.627 C 64.176 116.622,65.616 114.901,66.533 113.803 C 68.506 111.440,76.489 103.125,79.560 100.234 C 80.748 99.115,82.482 97.480,83.412 96.600 C 84.343 95.720,87.466 92.850,90.352 90.222 C 93.238 87.594,95.600 85.299,95.600 85.122 C 95.600 84.945,95.755 84.800,95.943 84.800 C 96.132 84.800,97.257 83.895,98.443 82.788 C 100.500 80.870,106.275 76.760,108.400 75.702 C 110.651 74.582,114.798 72.162,115.263 71.697 C 115.536 71.424,115.894 71.200,116.057 71.200 C 116.220 71.200,117.489 70.508,118.877 69.663 C 120.265 68.817,122.750 67.350,124.400 66.402 C 126.050 65.454,128.120 64.220,129.000 63.660 C 137.695 58.127,155.675 49.572,162.400 47.767 C 169.077 45.975,174.090 44.760,175.559 44.577 C 176.572 44.451,177.670 44.274,178.000 44.184 C 180.326 43.550,187.687 43.071,196.200 42.998 C 212.635 42.857,213.615 42.257,213.926 32.149 L 214.078 27.228 212.105 27.462 C 209.640 27.754,207.360 26.808,204.800 24.433 C 202.961 22.726,200.790 21.390,198.534 20.575 C 197.414 20.170,196.793 20.298,193.134 21.682 M256.600 33.596 C 252.006 33.884,251.297 34.323,249.012 38.285 C 248.985 38.332,248.071 38.096,246.981 37.759 C 244.607 37.027,236.872 37.328,234.245 38.255 C 228.278 40.360,227.170 48.128,232.139 53.014 C 238.449 59.220,246.481 62.427,258.200 63.420 C 261.667 63.714,262.203 63.866,264.200 65.127 C 265.080 65.682,265.847 66.103,265.904 66.062 C 266.015 65.982,266.242 66.117,270.600 68.855 C 272.140 69.823,273.850 70.841,274.400 71.118 C 274.950 71.395,276.750 72.514,278.400 73.605 C 280.050 74.696,282.119 75.978,282.999 76.453 C 283.878 76.928,284.778 77.534,284.999 77.798 C 285.219 78.063,287.560 79.697,290.200 81.429 C 292.840 83.162,295.238 84.809,295.529 85.089 C 295.819 85.370,296.299 85.600,296.595 85.600 C 296.891 85.600,297.193 85.735,297.267 85.900 C 297.409 86.220,299.688 87.981,301.998 89.555 C 305.056 91.639,309.770 94.952,310.368 95.436 C 311.999 96.757,314.724 98.712,315.900 99.406 C 316.615 99.827,317.200 100.314,317.200 100.486 C 317.200 100.659,317.369 100.800,317.575 100.800 C 317.781 100.800,320.166 102.428,322.875 104.418 C 325.584 106.409,328.790 108.697,330.000 109.505 C 331.210 110.312,332.332 111.159,332.494 111.386 C 332.682 111.650,332.794 111.655,332.806 111.400 C 332.816 111.180,333.008 111.315,333.232 111.700 C 333.456 112.085,333.886 112.400,334.187 112.400 C 334.487 112.400,334.803 112.610,334.889 112.866 C 335.297 114.092,339.877 113.368,343.841 111.452 C 345.948 110.433,347.738 109.600,347.819 109.600 C 347.901 109.600,347.967 111.175,347.966 113.100 C 347.964 118.457,348.451 120.844,350.926 127.600 C 353.886 135.681,354.752 137.360,357.292 139.940 C 358.407 141.073,359.450 142.000,359.609 142.000 C 360.099 142.000,364.918 145.989,365.554 146.921 C 365.884 147.404,366.264 147.890,366.399 148.000 C 368.888 150.028,369.719 158.464,368.054 164.800 L 367.266 167.800 369.846 172.734 C 374.050 180.769,379.559 187.778,384.554 191.448 C 385.570 192.194,385.740 192.625,385.972 195.048 C 386.467 200.217,388.700 201.536,391.441 198.279 C 392.199 197.378,392.447 197.237,392.281 197.800 C 392.050 198.584,391.379 204.048,390.980 208.400 C 390.275 216.079,390.582 225.338,391.601 227.181 C 391.937 227.788,391.975 227.521,392.842 218.400 C 393.947 206.793,396.191 195.562,399.030 187.437 C 400.170 184.174,400.138 184.400,399.467 184.400 C 398.789 184.400,396.096 187.068,395.376 188.452 C 394.871 189.424,392.427 191.783,392.201 191.516 C 392.146 191.452,391.999 187.350,391.873 182.400 C 391.626 172.650,391.449 170.650,389.340 153.800 C 388.570 147.640,387.835 141.430,387.707 140.000 C 387.577 138.541,387.172 136.961,386.785 136.400 C 386.406 135.850,384.426 132.700,382.386 129.400 C 380.345 126.100,378.047 122.410,377.277 121.200 C 376.508 119.990,375.486 118.370,375.006 117.600 C 374.526 116.830,373.225 114.760,372.117 113.000 C 371.008 111.240,366.181 103.500,361.390 95.800 C 344.949 69.376,345.777 70.576,340.004 64.786 C 332.703 57.462,317.402 46.295,314.000 45.807 C 313.890 45.792,312.630 45.122,311.200 44.319 C 304.964 40.818,287.922 34.914,281.872 34.160 C 280.952 34.046,279.930 33.851,279.600 33.728 C 278.775 33.419,261.029 33.318,256.600 33.596 M35.013 284.000 C 35.597 285.210,36.329 286.678,36.638 287.262 C 36.947 287.846,37.200 288.611,37.200 288.962 C 37.200 289.313,37.350 289.600,37.533 289.600 C 37.717 289.600,37.868 289.825,37.871 290.100 C 37.876 290.703,39.152 293.364,40.193 294.941 L 40.946 296.082 38.943 294.850 C 36.086 293.092,35.698 292.524,35.211 289.393 C 34.962 287.793,34.183 285.372,33.388 283.725 C 31.737 280.304,31.713 280.151,32.975 281.081 C 33.511 281.477,34.428 282.790,35.013 284.000 M28.994 284.456 C 29.909 287.354,30.049 288.959,29.278 287.735 C 28.604 286.664,26.941 284.598,26.300 284.036 C 25.136 283.016,25.874 281.255,27.483 281.213 C 27.748 281.206,28.428 282.665,28.994 284.456 " stroke="none" fill="#1cbcd4" fill-rule="evenodd"></path><path id="path2" d="M228.506 170.492 C 228.701 178.872,228.806 179.350,230.922 181.522 C 232.699 183.346,236.965 185.776,237.816 185.449 C 238.094 185.343,238.428 185.362,238.559 185.492 C 239.059 185.993,242.100 186.082,264.483 186.251 C 289.790 186.442,288.382 186.283,286.148 188.694 C 285.635 189.248,285.313 189.859,285.433 190.053 C 285.553 190.247,285.369 190.514,285.025 190.646 C 284.681 190.778,284.400 191.136,284.400 191.443 C 284.400 191.749,284.220 192.000,284.000 192.000 C 283.780 192.000,283.600 192.248,283.600 192.551 C 283.600 192.854,283.326 193.330,282.990 193.608 C 282.655 193.886,282.460 194.193,282.557 194.290 C 282.654 194.387,282.433 194.799,282.067 195.205 C 280.772 196.638,280.372 197.200,280.645 197.200 C 280.798 197.200,280.535 197.536,280.061 197.947 C 279.588 198.358,279.200 198.898,279.200 199.147 C 279.200 199.396,279.020 199.600,278.800 199.600 C 278.580 199.600,278.400 199.870,278.400 200.200 C 278.400 200.530,278.220 200.800,278.000 200.800 C 277.780 200.800,277.600 201.070,277.600 201.400 C 277.600 201.730,277.420 202.000,277.200 202.000 C 276.980 202.000,276.800 202.270,276.800 202.600 C 276.800 202.930,276.659 203.200,276.486 203.200 C 276.314 203.200,275.854 203.740,275.464 204.400 C 275.074 205.060,274.862 205.600,274.993 205.600 C 275.124 205.600,275.042 205.825,274.811 206.100 C 273.172 208.048,272.041 209.743,272.204 210.006 C 272.309 210.176,272.115 210.424,271.772 210.555 C 271.430 210.687,271.241 210.943,271.353 211.124 C 271.465 211.306,271.216 211.700,270.800 212.000 C 270.384 212.300,270.134 212.693,270.245 212.873 C 270.356 213.053,270.275 213.200,270.064 213.200 C 269.853 213.200,269.309 213.914,268.854 214.787 C 268.399 215.659,267.741 216.694,267.392 217.087 C 266.340 218.270,263.200 223.135,263.200 223.582 C 263.200 223.812,263.016 224.000,262.790 224.000 C 262.565 224.000,262.202 224.405,261.984 224.900 C 261.766 225.395,261.276 226.271,260.894 226.846 C 260.512 227.421,259.667 228.771,259.015 229.846 C 258.363 230.921,257.683 231.862,257.504 231.937 C 257.325 232.012,256.820 232.777,256.381 233.637 C 255.943 234.497,255.407 235.200,255.192 235.200 C 254.976 235.200,254.800 235.477,254.800 235.816 C 254.800 236.460,253.633 238.260,252.099 239.983 C 251.603 240.539,251.005 241.580,250.768 242.297 C 250.531 243.014,250.163 243.600,249.948 243.600 C 249.734 243.600,249.370 244.140,249.140 244.800 C 248.910 245.459,248.560 245.899,248.361 245.776 C 248.162 245.653,247.978 245.743,247.950 245.976 C 247.923 246.209,247.878 246.548,247.850 246.729 C 247.822 246.909,247.485 247.372,247.100 247.757 C 246.715 248.142,246.400 248.632,246.400 248.845 C 246.400 249.059,246.217 249.451,245.993 249.717 C 244.371 251.640,244.000 252.184,244.000 252.641 C 244.000 252.927,243.769 253.304,243.486 253.480 C 243.204 253.656,242.355 254.790,241.599 256.000 C 240.844 257.210,240.073 258.308,239.887 258.440 C 239.700 258.572,239.504 258.974,239.451 259.334 C 239.398 259.694,238.960 260.442,238.477 260.997 C 237.995 261.552,237.600 262.185,237.600 262.403 C 237.600 262.621,237.420 262.800,237.200 262.800 C 236.980 262.800,236.800 263.042,236.800 263.338 C 236.800 263.634,236.440 264.202,236.000 264.600 C 235.560 264.998,235.200 265.527,235.200 265.775 C 235.200 266.023,234.853 266.670,234.429 267.213 C 234.005 267.756,232.689 269.640,231.503 271.400 C 230.317 273.160,228.324 276.088,227.074 277.907 C 225.823 279.726,224.800 281.391,224.800 281.607 C 224.800 281.823,224.620 282.000,224.400 282.000 C 224.180 282.000,224.000 282.171,224.000 282.379 C 224.000 282.588,223.550 283.244,223.000 283.838 C 222.450 284.431,222.000 285.146,222.000 285.425 C 222.000 285.705,221.775 286.024,221.500 286.135 C 221.225 286.246,243.275 286.351,270.500 286.368 L 320.000 286.400 320.000 278.200 L 320.000 270.000 285.600 270.000 C 250.081 270.000,250.199 270.005,251.910 268.447 C 252.711 267.717,254.210 265.473,254.036 265.263 C 253.973 265.187,254.423 264.602,255.036 263.963 C 255.648 263.323,255.992 262.800,255.799 262.800 C 255.607 262.800,255.843 262.433,256.325 261.984 C 256.806 261.536,257.200 260.915,257.200 260.604 C 257.200 260.294,257.515 259.863,257.900 259.648 C 258.285 259.433,258.580 259.109,258.556 258.928 C 258.513 258.602,259.421 257.043,260.195 256.114 C 260.418 255.847,260.814 255.371,261.076 255.057 C 261.338 254.742,261.443 254.376,261.309 254.243 C 261.176 254.109,261.277 254.000,261.533 254.000 C 261.790 254.000,262.000 253.730,262.000 253.400 C 262.000 253.070,262.164 252.800,262.364 252.800 C 262.564 252.800,263.509 251.602,264.464 250.137 C 265.419 248.673,266.515 247.008,266.900 246.437 C 267.286 245.867,267.863 244.860,268.185 244.200 C 268.506 243.540,268.776 243.169,268.784 243.376 C 268.793 243.584,269.054 243.405,269.365 242.981 C 269.675 242.556,269.844 242.072,269.741 241.904 C 269.637 241.737,269.739 241.600,269.966 241.600 C 270.193 241.600,270.679 241.015,271.046 240.300 C 271.412 239.585,271.841 238.910,272.000 238.800 C 272.159 238.690,272.607 237.979,272.996 237.220 C 273.385 236.460,273.905 235.612,274.152 235.333 C 275.247 234.098,275.519 233.685,275.778 232.869 C 275.930 232.391,276.210 232.000,276.400 232.000 C 276.590 232.000,276.853 231.662,276.984 231.249 C 277.116 230.836,277.668 229.981,278.212 229.349 C 278.756 228.717,279.484 227.604,279.831 226.876 C 280.177 226.148,280.716 225.454,281.028 225.334 C 281.340 225.214,281.509 224.977,281.404 224.806 C 281.299 224.636,281.705 223.994,282.306 223.379 C 282.908 222.765,283.130 222.396,282.800 222.561 C 282.444 222.738,282.485 222.626,282.900 222.286 C 283.285 221.970,283.600 221.526,283.600 221.299 C 283.600 221.071,283.870 220.782,284.200 220.655 C 284.530 220.529,284.800 220.149,284.800 219.813 C 284.800 219.476,284.980 219.200,285.200 219.200 C 285.420 219.200,285.600 219.028,285.600 218.818 C 285.600 218.485,287.235 215.977,289.502 212.832 C 289.886 212.300,290.155 211.715,290.100 211.532 C 290.045 211.350,290.180 211.200,290.400 211.200 C 290.620 211.200,290.800 210.939,290.800 210.620 C 290.800 210.301,291.115 209.856,291.500 209.632 C 291.885 209.408,292.074 209.219,291.919 209.212 C 291.765 209.205,292.084 208.719,292.629 208.131 C 293.174 207.543,293.724 206.643,293.853 206.131 C 293.982 205.619,294.247 205.200,294.443 205.200 C 294.640 205.200,294.800 204.919,294.800 204.576 C 294.800 204.233,294.980 204.064,295.200 204.200 C 295.420 204.336,295.600 204.194,295.600 203.886 C 295.600 203.577,295.956 203.002,296.391 202.609 C 296.825 202.215,297.101 201.763,297.003 201.605 C 296.905 201.446,297.264 200.904,297.800 200.400 C 298.336 199.896,298.679 199.329,298.562 199.139 C 298.445 198.949,298.618 198.691,298.947 198.565 C 299.275 198.439,299.727 197.810,299.951 197.168 C 300.175 196.526,300.558 196.000,300.803 196.000 C 301.047 196.000,301.135 195.819,300.998 195.597 C 300.861 195.376,301.031 195.086,301.375 194.954 C 301.719 194.822,302.000 194.491,302.000 194.218 C 302.000 193.946,302.357 193.290,302.793 192.761 C 303.229 192.233,303.734 191.620,303.915 191.400 C 304.096 191.180,304.278 190.820,304.319 190.600 C 304.360 190.380,304.707 189.840,305.091 189.400 C 305.906 188.465,308.789 184.087,308.786 183.788 C 308.784 183.676,309.147 183.194,309.591 182.717 C 310.036 182.240,310.618 181.357,310.885 180.754 C 311.151 180.151,311.506 179.742,311.673 179.845 C 311.840 179.948,312.091 179.575,312.232 179.016 C 312.372 178.457,312.656 178.000,312.864 178.000 C 313.071 178.000,313.504 177.370,313.826 176.600 C 314.148 175.830,314.566 175.200,314.757 175.200 C 314.947 175.200,315.325 174.665,315.596 174.010 C 315.867 173.356,316.425 172.411,316.837 171.910 C 318.136 170.329,318.230 170.209,318.480 169.800 C 318.642 169.534,306.952 169.426,283.662 169.478 C 242.288 169.571,244.865 169.789,244.705 166.172 L 244.600 163.800 236.473 163.692 L 228.346 163.583 228.506 170.492 M196.480 165.680 C 196.216 165.944,196.000 166.314,196.000 166.502 C 196.000 166.690,195.461 167.419,194.802 168.122 C 194.143 168.825,193.603 169.597,193.602 169.838 C 193.601 170.079,193.149 170.799,192.598 171.438 C 192.046 172.077,191.494 172.915,191.371 173.300 C 191.247 173.685,191.007 174.000,190.836 174.000 C 190.666 174.000,190.193 174.619,189.785 175.376 C 189.378 176.132,188.926 176.678,188.781 176.588 C 188.635 176.498,188.177 177.123,187.762 177.976 C 187.347 178.830,186.871 179.444,186.704 179.340 C 186.424 179.168,186.239 179.780,186.353 180.500 C 186.379 180.665,186.232 180.800,186.027 180.800 C 185.822 180.800,185.539 181.163,185.398 181.606 C 185.257 182.049,184.975 182.308,184.771 182.182 C 184.567 182.056,184.400 182.215,184.400 182.534 C 184.400 182.854,183.953 183.540,183.407 184.058 C 182.861 184.576,182.411 185.194,182.407 185.430 C 182.403 185.667,181.950 186.283,181.400 186.800 C 180.850 187.317,180.400 187.947,180.400 188.200 C 180.400 188.453,179.950 189.083,179.400 189.600 C 178.850 190.117,178.400 190.771,178.400 191.054 C 178.400 191.337,177.995 191.946,177.500 192.407 C 177.005 192.868,176.600 193.400,176.600 193.589 C 176.600 193.777,175.970 194.682,175.200 195.600 C 174.430 196.518,173.778 197.433,173.750 197.634 C 173.722 197.835,173.678 198.210,173.650 198.467 C 173.623 198.723,173.486 198.819,173.347 198.680 C 172.997 198.331,171.600 200.176,171.600 200.987 C 171.600 201.350,171.420 201.536,171.200 201.400 C 170.980 201.264,170.800 201.418,170.800 201.743 C 170.800 202.068,170.665 202.393,170.500 202.467 C 170.014 202.682,168.000 205.508,168.000 205.973 C 168.000 206.208,167.859 206.400,167.686 206.400 C 167.514 206.400,167.033 206.985,166.619 207.700 C 166.205 208.415,165.491 209.462,165.033 210.026 C 164.575 210.590,163.840 211.552,163.400 212.165 C 162.960 212.778,162.017 214.026,161.304 214.939 C 160.591 215.853,160.006 216.806,160.004 217.057 C 160.002 217.309,159.730 217.618,159.400 217.745 C 159.070 217.871,158.800 218.251,158.800 218.587 C 158.800 218.924,158.632 219.200,158.427 219.200 C 158.222 219.200,157.950 219.528,157.822 219.929 C 157.695 220.331,157.278 221.006,156.895 221.430 C 155.707 222.747,153.803 225.384,153.801 225.715 C 153.801 225.888,153.530 226.200,153.200 226.408 C 152.870 226.617,152.775 226.791,152.989 226.794 C 153.203 226.797,152.978 227.080,152.489 227.423 C 152.000 227.765,151.600 228.305,151.600 228.623 C 151.600 228.940,151.390 229.200,151.133 229.200 C 150.877 229.200,150.773 229.306,150.903 229.436 C 151.032 229.566,150.612 230.222,149.969 230.895 C 149.326 231.568,148.800 232.244,148.800 232.397 C 148.800 232.550,148.350 233.199,147.800 233.838 C 147.251 234.477,146.801 235.126,146.800 235.279 C 146.800 235.433,146.350 236.044,145.800 236.638 C 145.250 237.231,144.800 237.883,144.800 238.087 C 144.800 238.291,144.563 238.694,144.273 238.984 C 143.983 239.274,142.858 240.834,141.773 242.450 C 139.823 245.354,137.451 248.205,137.681 247.368 C 137.800 246.934,136.984 245.666,135.300 243.668 C 134.806 243.080,134.401 242.379,134.400 242.109 C 134.400 241.839,133.950 241.324,133.400 240.963 C 132.850 240.603,132.400 240.051,132.400 239.737 C 132.400 239.423,132.216 238.949,131.992 238.683 C 130.116 236.461,129.601 235.734,129.600 235.309 C 129.600 235.039,129.150 234.524,128.600 234.163 C 128.050 233.803,127.600 233.261,127.600 232.959 C 127.600 232.471,127.237 231.923,125.800 230.243 C 124.073 228.223,123.846 227.885,124.400 228.160 C 124.730 228.324,124.505 228.033,123.900 227.514 C 123.295 226.995,122.800 226.352,122.800 226.085 C 122.800 225.818,122.485 225.261,122.100 224.847 C 120.961 223.624,120.000 222.263,120.000 221.876 C 120.000 221.678,119.552 220.950,119.004 220.258 C 118.455 219.566,117.690 218.581,117.304 218.068 C 116.917 217.555,116.375 216.893,116.100 216.596 C 115.825 216.300,115.600 215.864,115.600 215.629 C 115.600 215.393,115.409 215.200,115.176 215.200 C 114.943 215.200,114.864 215.020,115.000 214.800 C 115.136 214.580,115.057 214.400,114.824 214.400 C 114.591 214.400,114.400 214.119,114.400 213.776 C 114.400 213.433,114.239 213.252,114.043 213.374 C 113.846 213.495,113.581 213.191,113.453 212.697 C 113.325 212.204,112.811 211.320,112.310 210.734 C 110.467 208.574,110.161 208.159,108.903 206.110 C 108.197 204.960,107.300 203.668,106.910 203.238 C 105.864 202.087,105.528 201.622,103.995 199.200 C 102.619 197.025,101.873 196.009,100.900 194.984 C 100.625 194.694,100.400 194.363,100.400 194.249 C 100.400 194.029,98.153 190.623,97.333 189.600 C 95.624 187.468,94.000 185.137,94.000 184.816 C 94.000 184.609,93.685 184.256,93.300 184.032 C 92.915 183.808,92.735 183.619,92.900 183.612 C 93.065 183.605,92.922 183.285,92.583 182.900 C 91.174 181.301,88.860 178.073,89.014 177.920 C 89.104 177.829,88.643 177.169,87.989 176.453 C 87.335 175.737,86.800 174.995,86.800 174.804 C 86.800 174.613,86.173 173.792,85.407 172.980 C 84.640 172.167,84.091 171.377,84.185 171.224 C 84.280 171.071,84.016 170.700,83.600 170.400 C 83.184 170.100,82.934 169.707,83.045 169.527 C 83.156 169.347,83.052 169.200,82.814 169.200 C 82.575 169.200,82.209 168.750,82.000 168.200 C 81.791 167.650,81.425 167.200,81.186 167.200 C 80.948 167.200,80.851 167.040,80.972 166.845 C 81.093 166.650,80.923 166.268,80.596 165.996 C 80.069 165.559,80.000 172.464,80.000 225.959 L 80.000 286.416 88.300 286.308 L 96.600 286.200 96.702 252.040 C 96.804 218.078,96.809 217.884,97.593 218.594 C 98.026 218.986,98.285 219.463,98.167 219.653 C 98.049 219.844,98.143 220.000,98.376 220.000 C 98.609 220.000,98.800 220.261,98.800 220.580 C 98.800 220.899,99.042 221.304,99.337 221.480 C 99.632 221.656,100.216 222.340,100.634 223.000 C 101.052 223.660,101.722 224.560,102.123 225.000 C 102.525 225.440,103.216 226.385,103.659 227.100 C 104.102 227.815,104.602 228.400,104.768 228.400 C 105.159 228.400,106.172 230.476,106.036 231.000 C 105.980 231.220,106.069 231.264,106.235 231.099 C 106.400 230.933,106.980 231.563,107.523 232.499 C 108.067 233.434,109.206 235.042,110.056 236.072 C 110.905 237.101,111.600 238.108,111.600 238.310 C 111.600 238.511,111.960 239.002,112.400 239.400 C 112.840 239.798,113.200 240.396,113.200 240.729 C 113.200 241.061,113.320 241.214,113.466 241.067 C 113.613 240.921,114.246 241.701,114.874 242.801 C 115.502 243.900,116.193 244.800,116.408 244.800 C 116.624 244.800,116.800 245.051,116.800 245.357 C 116.800 245.664,117.070 246.018,117.400 246.145 C 117.730 246.271,118.000 246.632,118.000 246.945 C 118.000 247.259,118.531 248.083,119.179 248.777 C 119.827 249.472,120.374 250.166,120.394 250.320 C 120.413 250.474,120.783 251.006,121.215 251.503 C 121.647 252.000,122.000 252.565,122.000 252.760 C 122.000 252.955,122.272 253.219,122.604 253.346 C 122.936 253.473,123.162 253.718,123.106 253.889 C 122.997 254.223,124.159 255.996,125.300 257.238 C 125.685 257.657,125.898 258.000,125.773 258.000 C 125.505 258.000,128.313 261.591,129.106 262.264 C 129.407 262.519,129.623 262.848,129.586 262.996 C 129.549 263.144,130.122 264.016,130.859 264.933 C 131.596 265.850,132.155 266.735,132.100 266.900 C 132.045 267.065,132.180 267.200,132.400 267.200 C 132.620 267.200,132.800 267.461,132.800 267.780 C 132.800 268.099,133.043 268.504,133.339 268.680 C 133.636 268.856,134.380 269.765,134.992 270.700 C 135.605 271.635,136.247 272.400,136.420 272.400 C 136.592 272.400,136.888 272.863,137.076 273.429 L 137.420 274.459 138.510 273.449 C 139.109 272.893,139.600 272.166,139.600 271.833 C 139.600 271.500,139.960 271.035,140.400 270.800 C 140.840 270.565,141.200 270.117,141.200 269.806 C 141.200 269.494,141.515 269.056,141.900 268.832 C 142.285 268.608,142.458 268.419,142.284 268.412 C 142.111 268.405,142.353 267.995,142.823 267.500 C 143.910 266.356,147.600 260.810,147.600 260.321 C 147.600 260.118,147.780 260.064,148.000 260.200 C 148.220 260.336,148.400 260.167,148.400 259.824 C 148.400 259.481,148.591 259.200,148.824 259.200 C 149.057 259.200,149.143 259.031,149.015 258.825 C 148.888 258.618,149.102 258.264,149.492 258.037 C 149.881 257.810,150.063 257.619,149.897 257.612 C 149.730 257.605,150.131 257.037,150.789 256.349 C 151.446 255.661,151.887 254.941,151.768 254.749 C 151.650 254.557,151.743 254.400,151.976 254.400 C 152.209 254.400,152.400 254.119,152.400 253.776 C 152.400 253.433,152.580 253.264,152.800 253.400 C 153.020 253.536,153.200 253.401,153.200 253.099 C 153.200 252.798,153.560 252.164,154.000 251.692 C 154.440 251.220,154.800 250.686,154.800 250.506 C 154.800 250.325,155.160 249.870,155.600 249.493 C 156.040 249.116,156.400 248.525,156.400 248.180 C 156.400 247.835,156.580 247.664,156.800 247.800 C 157.020 247.936,157.200 247.794,157.200 247.485 C 157.200 247.175,157.515 246.559,157.900 246.115 C 159.392 244.393,160.596 242.661,160.509 242.363 C 160.458 242.192,160.953 241.546,161.609 240.927 C 162.264 240.309,162.800 239.577,162.800 239.301 C 162.800 239.026,162.935 238.800,163.100 238.799 C 163.265 238.799,163.935 237.944,164.588 236.899 C 165.242 235.855,165.962 234.781,166.188 234.514 C 166.415 234.247,166.825 233.759,167.100 233.431 C 167.375 233.102,167.600 232.563,167.600 232.231 C 167.600 231.899,167.975 231.427,168.434 231.182 C 168.892 230.936,169.521 230.130,169.830 229.390 C 170.139 228.650,170.631 227.899,170.924 227.722 C 171.542 227.347,174.281 223.380,175.303 221.377 C 175.690 220.620,176.185 220.000,176.403 220.000 C 176.621 220.000,176.800 219.822,176.800 219.605 C 176.800 219.236,177.555 218.192,178.681 217.003 C 178.945 216.724,179.050 216.384,178.914 216.248 C 178.778 216.111,178.887 216.000,179.157 216.000 C 179.427 216.000,179.544 215.832,179.417 215.628 C 179.291 215.423,179.374 215.139,179.603 214.998 C 179.832 214.856,179.994 214.889,179.963 215.070 C 179.931 215.252,179.927 231.375,179.953 250.900 L 180.000 286.400 188.500 286.400 L 197.000 286.400 197.000 225.800 C 197.000 192.470,196.991 165.200,196.980 165.200 C 196.969 165.200,196.744 165.416,196.480 165.680 " stroke="none" fill="#1fc4e4" fill-rule="evenodd"></path><path id="path3" d="" stroke="none" fill="#1cbcdc" fill-rule="evenodd"></path><path id="path4" d="" stroke="none" fill="#20c8d8" fill-rule="evenodd"></path></g></svg>